<svg xmlns="http://www.w3.org/2000/svg" xmlns:xlink="http://www.w3.org/1999/xlink" width="1500" zoomAndPan="magnify" viewBox="0 0 1125 749.999995" height="1000" preserveAspectRatio="xMidYMid meet" version="1.0"><defs><g/><clipPath id="0364f00d35"><rect x="0" width="1051" y="0" height="663"/></clipPath></defs><g transform="matrix(1, 0, 0, 1, 73, 43)"><g clip-path="url(#0364f00d35)"><g fill="#161415" fill-opacity="1"><g transform="translate(0.94041, 580.642697)"><g><path d="M 82.015625 -49.484375 L 82.015625 -199.296875 C 82.015625 -202.234375 81 -204.71875 78.96875 -206.75 C 76.9375 -208.78125 74.566406 -209.796875 71.859375 -209.796875 L 40.328125 -209.796875 L 40.328125 -38.984375 L 71.859375 -38.984375 C 74.566406 -38.984375 76.9375 -40.054688 78.96875 -42.203125 C 81 -44.347656 82.015625 -46.773438 82.015625 -49.484375 Z M 2.71875 -248.4375 L 4.75 -248.4375 C 17.394531 -248.4375 29.929688 -248.492188 42.359375 -248.609375 C 54.796875 -248.722656 67.226562 -248.78125 79.65625 -248.78125 C 88.007812 -248.78125 95.347656 -246.800781 101.671875 -242.84375 C 108.003906 -238.894531 112.976562 -233.8125 116.59375 -227.59375 C 120.207031 -221.382812 122.015625 -214.664062 122.015625 -207.4375 L 122.015625 -41.34375 C 122.015625 -34.34375 120.207031 -27.675781 116.59375 -21.34375 C 112.976562 -15.019531 108.003906 -9.878906 101.671875 -5.921875 C 95.347656 -1.972656 88.007812 0 79.65625 0 C 67.226562 0 54.796875 -0.0546875 42.359375 -0.171875 C 29.929688 -0.285156 17.394531 -0.453125 4.75 -0.671875 L 2.71875 -0.671875 C 1.132812 -0.671875 0.34375 -1.460938 0.34375 -3.046875 L 0.34375 -246.40625 C 0.34375 -247.757812 1.132812 -248.4375 2.71875 -248.4375 Z M 2.71875 -248.4375 "/></g></g></g><g fill="#161415" fill-opacity="1"><g transform="translate(149.39408, 580.642697)"><g><path d="M 41.34375 -244.375 L 41.34375 -4.40625 C 41.34375 -1.46875 39.875 0 36.9375 0 L 4.75 0 C 1.8125 0 0.34375 -1.46875 0.34375 -4.40625 L 0.34375 -244.375 C 0.34375 -247.3125 1.8125 -248.78125 4.75 -248.78125 L 36.9375 -248.78125 C 39.875 -248.78125 41.34375 -247.3125 41.34375 -244.375 Z M 41.34375 -244.375 "/></g></g></g><g fill="#161415" fill-opacity="1"><g transform="translate(214.80857, 580.642697)"><g><path d="M 40.671875 -63.375 C 40.671875 -56.601562 41.234375 -51.460938 42.359375 -47.953125 C 43.492188 -44.453125 45.8125 -42.132812 49.3125 -41 C 52.8125 -39.875 58.066406 -39.203125 65.078125 -38.984375 L 67.78125 -38.984375 C 74.332031 -38.984375 78.960938 -39.375 81.671875 -40.15625 C 84.390625 -40.945312 86.203125 -41.910156 87.109375 -43.046875 C 88.015625 -44.171875 88.804688 -46.316406 89.484375 -49.484375 C 89.703125 -51.296875 89.8125 -53.273438 89.8125 -55.421875 C 89.8125 -57.566406 89.8125 -59.878906 89.8125 -62.359375 C 89.8125 -65.523438 89.867188 -68.742188 89.984375 -72.015625 C 90.097656 -75.296875 89.929688 -78.40625 89.484375 -81.34375 C 89.484375 -81.570312 89.484375 -81.6875 89.484375 -81.6875 C 89.484375 -81.6875 89.484375 -81.796875 89.484375 -82.015625 C 89.484375 -82.703125 89.367188 -83.550781 89.140625 -84.5625 C 88.910156 -85.582031 88.570312 -86.546875 88.125 -87.453125 L 86.765625 -90.5 L 16.265625 -141.671875 L 14.90625 -142.6875 C 14.457031 -143.144531 14.234375 -143.484375 14.234375 -143.703125 L 12.546875 -145.75 C 9.609375 -149.582031 6.894531 -153.984375 4.40625 -158.953125 C 1.914062 -163.929688 0.671875 -169.019531 0.671875 -174.21875 L 0.671875 -200.65625 C 0.671875 -209.46875 2.875 -217.597656 7.28125 -225.046875 C 11.6875 -232.503906 17.726562 -238.550781 25.40625 -243.1875 C 33.09375 -247.820312 41.910156 -250.140625 51.859375 -250.140625 L 73.890625 -250.140625 C 84.960938 -250.140625 94.675781 -247.597656 103.03125 -242.515625 C 111.394531 -237.429688 117.945312 -230.765625 122.6875 -222.515625 C 127.4375 -214.265625 129.8125 -205.28125 129.8125 -195.5625 L 129.8125 -164.390625 C 129.8125 -161.453125 128.34375 -159.984375 125.40625 -159.984375 L 91.859375 -159.984375 C 90.492188 -159.984375 89.8125 -160.660156 89.8125 -162.015625 L 89.8125 -163.703125 C 89.8125 -166.640625 89.753906 -170.367188 89.640625 -174.890625 C 89.535156 -179.410156 89.03125 -184.039062 88.125 -188.78125 C 87.445312 -193.757812 86.375 -198 84.90625 -201.5 C 83.4375 -205 81.570312 -207.425781 79.3125 -208.78125 C 77.726562 -209.914062 75.75 -210.59375 73.375 -210.8125 C 71.007812 -211.039062 68.359375 -211.15625 65.421875 -211.15625 C 58.179688 -211.15625 52.753906 -210.757812 49.140625 -209.96875 C 45.523438 -209.175781 43.207031 -207.425781 42.1875 -204.71875 C 41.175781 -202.007812 40.671875 -197.488281 40.671875 -191.15625 C 40.671875 -188.894531 40.671875 -186.632812 40.671875 -184.375 C 40.671875 -182.125 40.785156 -179.753906 41.015625 -177.265625 C 41.015625 -177.035156 41.015625 -176.921875 41.015625 -176.921875 C 41.015625 -176.921875 41.015625 -176.8125 41.015625 -176.59375 C 41.015625 -175.90625 41.179688 -175.222656 41.515625 -174.546875 C 41.859375 -173.867188 42.144531 -172.96875 42.375 -171.84375 L 44.0625 -168.796875 L 113.890625 -117.953125 C 114.109375 -117.722656 114.21875 -117.609375 114.21875 -117.609375 C 114.21875 -117.609375 114.332031 -117.492188 114.5625 -117.265625 L 115.921875 -115.921875 C 115.921875 -115.921875 115.972656 -115.863281 116.078125 -115.75 C 116.191406 -115.632812 116.25 -115.578125 116.25 -115.578125 L 117.953125 -113.203125 C 120.890625 -109.585938 123.597656 -105.296875 126.078125 -100.328125 C 128.566406 -95.359375 129.8125 -90.160156 129.8125 -84.734375 L 129.8125 -49.484375 C 129.8125 -40.898438 127.664062 -32.820312 123.375 -25.25 C 119.082031 -17.675781 113.09375 -11.515625 105.40625 -6.765625 C 97.726562 -2.023438 88.804688 0.34375 78.640625 0.34375 L 56.609375 0.34375 C 45.535156 0.34375 35.816406 -2.253906 27.453125 -7.453125 C 19.085938 -12.648438 12.53125 -19.425781 7.78125 -27.78125 C 3.039062 -36.144531 0.671875 -45.070312 0.671875 -54.5625 L 0.671875 -85.75 C 0.671875 -88.6875 2.140625 -90.15625 5.078125 -90.15625 L 36.265625 -90.15625 C 39.203125 -90.15625 40.671875 -88.6875 40.671875 -85.75 Z M 40.671875 -63.375 "/></g></g></g><g fill="#161415" fill-opacity="1"><g transform="translate(368.685189, 580.642697)"><g><path d="M 138.96875 -244.375 L 138.96875 -214.546875 C 138.96875 -211.609375 137.5 -210.140625 134.5625 -210.140625 L 90.15625 -210.140625 L 90.15625 -4.40625 C 90.15625 -1.46875 88.6875 0 85.75 0 L 54.234375 0 C 51.296875 0 49.828125 -1.46875 49.828125 -4.40625 L 49.828125 -210.140625 L 5.078125 -209.46875 C 2.140625 -209.46875 0.671875 -210.9375 0.671875 -213.875 L 0.671875 -244.375 C 0.671875 -247.3125 2.140625 -248.78125 5.078125 -248.78125 L 134.5625 -248.78125 C 137.5 -248.78125 138.96875 -247.3125 138.96875 -244.375 Z M 138.96875 -244.375 "/></g></g></g><g fill="#161415" fill-opacity="1"><g transform="translate(526.290071, 580.642697)"><g><path d="M 80.328125 -248.78125 C 88.691406 -248.78125 96.035156 -246.859375 102.359375 -243.015625 C 108.679688 -239.171875 113.59375 -234.140625 117.09375 -227.921875 C 120.601562 -221.710938 122.359375 -214.992188 122.359375 -207.765625 L 122.359375 -132.1875 C 122.359375 -123.375 120.320312 -114.84375 116.25 -106.59375 C 112.1875 -98.34375 105.070312 -92.523438 94.90625 -89.140625 L 123.03125 -5.765625 C 124.613281 -1.921875 123.257812 0 118.96875 0 L 89.140625 0 C 87.109375 0 85.753906 -1.015625 85.078125 -3.046875 L 54.90625 -86.421875 L 40.671875 -86.421875 L 40.671875 -4.40625 C 40.671875 -1.46875 39.203125 0 36.265625 0 L 5.078125 0 C 2.140625 0 0.671875 -1.46875 0.671875 -4.40625 L 0.34375 -244.375 C 0.34375 -247.3125 1.8125 -248.78125 4.75 -248.78125 Z M 72.53125 -209.796875 L 40.671875 -209.796875 L 40.671875 -125.40625 L 72.53125 -125.40625 C 75.238281 -125.40625 77.550781 -126.421875 79.46875 -128.453125 C 81.394531 -130.484375 82.359375 -132.96875 82.359375 -135.90625 L 82.359375 -199.640625 C 82.359375 -202.578125 81.34375 -205.003906 79.3125 -206.921875 C 77.28125 -208.835938 75.019531 -209.796875 72.53125 -209.796875 Z M 72.53125 -209.796875 "/></g></g></g><g fill="#161415" fill-opacity="1"><g transform="translate(678.133159, 580.642697)"><g><path d="M 41.34375 -244.375 L 41.34375 -4.40625 C 41.34375 -1.46875 39.875 0 36.9375 0 L 4.75 0 C 1.8125 0 0.34375 -1.46875 0.34375 -4.40625 L 0.34375 -244.375 C 0.34375 -247.3125 1.8125 -248.78125 4.75 -248.78125 L 36.9375 -248.78125 C 39.875 -248.78125 41.34375 -247.3125 41.34375 -244.375 Z M 41.34375 -244.375 "/></g></g></g><g fill="#161415" fill-opacity="1"><g transform="translate(745.242293, 580.642697)"><g><path d="M 129.46875 -54.5625 C 129.46875 -45.53125 127.660156 -36.832031 124.046875 -28.46875 C 120.429688 -20.113281 114.835938 -13.28125 107.265625 -7.96875 C 99.703125 -2.65625 90.160156 0 78.640625 0 L 51.859375 0 C 40.554688 0 31.0625 -2.65625 23.375 -7.96875 C 15.695312 -13.28125 9.992188 -20.113281 6.265625 -28.46875 C 2.535156 -36.832031 0.671875 -45.53125 0.671875 -54.5625 L 0.671875 -194.546875 C 0.671875 -203.585938 2.535156 -212.226562 6.265625 -220.46875 C 9.992188 -228.71875 15.695312 -235.5 23.375 -240.8125 C 31.0625 -246.125 40.554688 -248.78125 51.859375 -248.78125 L 78.640625 -248.78125 C 90.160156 -248.78125 99.703125 -246.125 107.265625 -240.8125 C 114.835938 -235.5 120.429688 -228.71875 124.046875 -220.46875 C 127.660156 -212.226562 129.46875 -203.585938 129.46875 -194.546875 L 129.46875 -163.03125 C 129.46875 -160.09375 128 -158.625 125.0625 -158.625 L 91.515625 -157.9375 C 90.160156 -157.9375 89.484375 -158.617188 89.484375 -159.984375 L 89.484375 -162.015625 C 89.484375 -164.722656 89.425781 -168.445312 89.3125 -173.1875 C 89.195312 -177.9375 88.6875 -182.796875 87.78125 -187.765625 C 86.875 -192.960938 85.6875 -197.3125 84.21875 -200.8125 C 82.75 -204.320312 80.890625 -206.640625 78.640625 -207.765625 C 78.410156 -207.765625 78.296875 -207.765625 78.296875 -207.765625 C 78.296875 -207.765625 78.179688 -207.765625 77.953125 -207.765625 C 76.367188 -208.671875 74.503906 -209.234375 72.359375 -209.453125 C 70.210938 -209.679688 67.785156 -209.796875 65.078125 -209.796875 C 56.035156 -209.796875 49.765625 -207.875 46.265625 -204.03125 C 42.765625 -200.195312 41.015625 -193.988281 41.015625 -185.40625 L 41.015625 -63.375 C 41.015625 -55.019531 42.765625 -48.863281 46.265625 -44.90625 C 49.765625 -40.957031 56.035156 -38.984375 65.078125 -38.984375 C 67.785156 -38.984375 70.210938 -39.09375 72.359375 -39.3125 C 74.503906 -39.539062 76.367188 -40.109375 77.953125 -41.015625 C 78.179688 -41.015625 78.296875 -41.015625 78.296875 -41.015625 C 78.296875 -41.015625 78.410156 -41.015625 78.640625 -41.015625 C 83.148438 -43.492188 86.3125 -49.929688 88.125 -60.328125 C 89.03125 -65.296875 89.535156 -70.097656 89.640625 -74.734375 C 89.753906 -79.367188 89.925781 -83.15625 90.15625 -86.09375 L 90.15625 -88.125 C 90.15625 -89.476562 90.832031 -90.15625 92.1875 -90.15625 L 125.0625 -90.15625 C 128 -90.15625 129.46875 -88.6875 129.46875 -85.75 Z M 129.46875 -54.5625 "/></g></g></g><g fill="#161415" fill-opacity="1"><g transform="translate(892.679134, 580.642697)"><g><path d="M 138.96875 -244.375 L 138.96875 -214.546875 C 138.96875 -211.609375 137.5 -210.140625 134.5625 -210.140625 L 90.15625 -210.140625 L 90.15625 -4.40625 C 90.15625 -1.46875 88.6875 0 85.75 0 L 54.234375 0 C 51.296875 0 49.828125 -1.46875 49.828125 -4.40625 L 49.828125 -210.140625 L 5.078125 -209.46875 C 2.140625 -209.46875 0.671875 -210.9375 0.671875 -213.875 L 0.671875 -244.375 C 0.671875 -247.3125 2.140625 -248.78125 5.078125 -248.78125 L 134.5625 -248.78125 C 137.5 -248.78125 138.96875 -247.3125 138.96875 -244.375 Z M 138.96875 -244.375 "/></g></g></g><path stroke-linecap="butt" transform="matrix(0.350923, 0, 0, 0.350923, 525.614767, 279.186761)" fill="none" stroke-linejoin="miter" d="M -0.00423327 38.505432 L 1442.061656 38.505432 " stroke="#161415" stroke-width="77" stroke-opacity="1" stroke-miterlimit="4"/><g fill="#161415" fill-opacity="1"><g transform="translate(0.770686, 306.006185)"><g><path d="M 77.4375 -239.84375 C 85.5 -239.84375 92.578125 -237.988281 98.671875 -234.28125 C 104.773438 -230.582031 109.515625 -225.738281 112.890625 -219.75 C 116.273438 -213.757812 117.96875 -207.28125 117.96875 -200.3125 L 117.96875 -127.4375 C 117.96875 -118.9375 116.003906 -110.710938 112.078125 -102.765625 C 108.160156 -94.816406 101.300781 -89.207031 91.5 -85.9375 L 118.609375 -5.5625 C 120.140625 -1.851562 118.832031 0 114.6875 0 L 85.9375 0 C 83.976562 0 82.671875 -0.976562 82.015625 -2.9375 L 52.9375 -83.328125 L 39.21875 -83.328125 L 39.21875 -4.25 C 39.21875 -1.414062 37.800781 0 34.96875 0 L 4.90625 0 C 2.070312 0 0.65625 -1.414062 0.65625 -4.25 L 0.328125 -235.59375 C 0.328125 -238.425781 1.742188 -239.84375 4.578125 -239.84375 Z M 69.921875 -202.265625 L 39.21875 -202.265625 L 39.21875 -120.90625 L 69.921875 -120.90625 C 72.535156 -120.90625 74.769531 -121.882812 76.625 -123.84375 C 78.476562 -125.800781 79.40625 -128.195312 79.40625 -131.03125 L 79.40625 -192.46875 C 79.40625 -195.300781 78.421875 -197.640625 76.453125 -199.484375 C 74.492188 -201.335938 72.316406 -202.265625 69.921875 -202.265625 Z M 69.921875 -202.265625 "/></g></g></g><g fill="#161415" fill-opacity="1"><g transform="translate(142.26313, 306.006185)"><g><path d="M 70.90625 -143.453125 L 59.140625 -89.859375 L 82.015625 -89.859375 Z M 136.265625 -0.328125 L 104.890625 -0.328125 C 102.492188 -0.328125 101.078125 -1.414062 100.640625 -3.59375 L 90.84375 -52.28125 L 50.96875 -52.28125 L 41.171875 -3.59375 C 40.734375 -1.414062 39.316406 -0.328125 36.921875 -0.328125 L 5.5625 -0.328125 C 2.070312 -0.328125 0.65625 -2.070312 1.3125 -5.5625 L 52.28125 -236.90625 C 52.71875 -239.082031 54.023438 -240.171875 56.203125 -240.171875 L 85.9375 -240.171875 C 88.113281 -240.171875 89.421875 -239.082031 89.859375 -236.90625 L 140.515625 -5.5625 C 141.160156 -2.070312 139.742188 -0.328125 136.265625 -0.328125 Z M 136.265625 -0.328125 "/></g></g></g><g fill="#161415" fill-opacity="1"><g transform="translate(271.011404, 306.006185)"><g><path d="M 156.1875 0 L 126.78125 0 C 124.382812 0 122.96875 -1.195312 122.53125 -3.59375 L 106.203125 -96.0625 L 90.515625 -3.59375 C 90.078125 -1.195312 88.660156 0 86.265625 0 L 56.203125 0 C 54.023438 0 52.71875 -1.085938 52.28125 -3.265625 L 1.640625 -234.9375 C 0.984375 -238.425781 2.394531 -240.171875 5.875 -240.171875 L 39.21875 -240.171875 C 40.082031 -240.171875 40.734375 -239.734375 41.171875 -238.859375 L 41.5 -237.234375 C 45.851562 -215.660156 50.367188 -194.035156 55.046875 -172.359375 C 59.734375 -150.691406 64.476562 -129.070312 69.28125 -107.5 L 87.578125 -212.71875 C 88.015625 -215.113281 89.429688 -216.3125 91.828125 -216.3125 L 121.234375 -216.3125 C 123.628906 -216.3125 125.046875 -215.113281 125.484375 -212.71875 L 143.78125 -106.53125 L 172.53125 -236.90625 C 172.96875 -239.082031 174.273438 -240.171875 176.453125 -240.171875 L 206.84375 -240.171875 C 210.332031 -240.171875 211.75 -238.425781 211.09375 -234.9375 L 160.109375 -3.265625 C 159.679688 -1.085938 158.375 0 156.1875 0 Z M 156.1875 0 "/></g></g></g></g></g></svg>